<svg xmlns="http://www.w3.org/2000/svg" viewBox="0 0 16 16" fill="none" shape-rendering="crispEdges" width="128" height="128"><metadata xmlns:rdf="http://www.w3.org/1999/02/22-rdf-syntax-ns#" xmlns:xsi="http://www.w3.org/2001/XMLSchema-instance" xmlns:dc="http://purl.org/dc/elements/1.1/" xmlns:dcterms="http://purl.org/dc/terms/"><rdf:RDF><rdf:Description><dc:title>Pixel Art</dc:title><dc:creator>DiceBear</dc:creator><dc:source xsi:type="dcterms:URI">https://www.figma.com/community/file/1198754108850888330</dc:source><dcterms:license xsi:type="dcterms:URI">https://creativecommons.org/publicdomain/zero/1.0/</dcterms:license><dc:rights>„Pixel Art” (https://www.figma.com/community/file/1198754108850888330) by „DiceBear”, licensed under „CC0 1.0” (https://creativecommons.org/publicdomain/zero/1.0/)</dc:rights></rdf:Description></rdf:RDF></metadata><mask id="viewboxMask"><rect width="16" height="16" rx="0" ry="0" x="0" y="0" fill="#fff" /></mask><g mask="url(#viewboxMask)"><rect fill="#fef3c7" width="16" height="16" x="0" y="0" /><g transform="translate(0.8 0.8) scale(0.9)"><path d="M4 2h8v1h1v3h1v2h-1v3h-1v1H9v1h4v1h1v2H2v-2h1v-1h4v-1H4v-1H3V8H2V6h1V3h1V2Z" fill="#cb9e6e"/><path d="M4 2h8v1h1v3h1v2h-1v3h-1v1H4v-1H3V8H2V6h1V3h1V2Z" fill="#fff" fill-opacity=".1"/><path d="M10 13h3v1h1v2H2v-2h1v-1h3v1h4v-1Z" fill="#00b159"/><path fill="#fff" fill-opacity=".2" d="M3 13h1v1H3zM2 14h1v1H2zM3 15h1v1H3zM4 14h1v1H4zM5 13h1v1H5zM5 15h1v1H5zM6 14h1v1H6zM7 15h1v1H7zM8 14h1v1H8zM9 15h1v1H9zM10 14h1v1h-1zM11 15h1v1h-1zM11 13h1v1h-1zM12 14h1v1h-1zM13 15h1v1h-1z"/><path fill="#fff" d="M4 5h3v2H4zM9 5h3v2H9z"/><path fill="#588387" d="M9 6h1v1H9zM4 6h1v1H4z"/><path d="M7 9h2v1H7V9ZM7 10v1H6v-1h1ZM9 10v1h1v-1H9Z" fill="#d29985"/><path d="M3 3h10v1H3zM4 2h8v1H4zM2 4h2v2H2zM12 4h2v2h-2z" fill="#bd1700"/></g></g></svg>