<svg xmlns="http://www.w3.org/2000/svg" viewBox="0 0 16 16" fill="none" shape-rendering="crispEdges" width="128" height="128"><metadata xmlns:rdf="http://www.w3.org/1999/02/22-rdf-syntax-ns#" xmlns:xsi="http://www.w3.org/2001/XMLSchema-instance" xmlns:dc="http://purl.org/dc/elements/1.1/" xmlns:dcterms="http://purl.org/dc/terms/"><rdf:RDF><rdf:Description><dc:title>Pixel Art</dc:title><dc:creator>DiceBear</dc:creator><dc:source xsi:type="dcterms:URI">https://www.figma.com/community/file/1198754108850888330</dc:source><dcterms:license xsi:type="dcterms:URI">https://creativecommons.org/publicdomain/zero/1.0/</dcterms:license><dc:rights>„Pixel Art” (https://www.figma.com/community/file/1198754108850888330) by „DiceBear”, licensed under „CC0 1.0” (https://creativecommons.org/publicdomain/zero/1.0/)</dc:rights></rdf:Description></rdf:RDF></metadata><mask id="viewboxMask"><rect width="16" height="16" rx="0" ry="0" x="0" y="0" fill="#fff" /></mask><g mask="url(#viewboxMask)"><rect fill="#fef3c7" width="16" height="16" x="0" y="0" /><g transform="translate(0.8 0.8) scale(0.9)"><path d="M4 2h8v1h1v3h1v2h-1v3h-1v1H9v1h4v1h1v2H2v-2h1v-1h4v-1H4v-1H3V8H2V6h1V3h1V2Z" fill="#cb9e6e"/><path d="M4 2h8v1h1v3h1v2h-1v3h-1v1H4v-1H3V8H2V6h1V3h1V2Z" fill="#fff" fill-opacity=".1"/><path d="M5 13H3v1H2v2h5v-1H6v-1H5v-1ZM13 13h-2v1h-1v1H9v1h5v-2h-1v-1Z" fill="#ffc425"/><path fill="#fff" fill-opacity=".3" d="M11 13h1v1h-1zM10 14h1v1h-1zM9 15h1v1H9zM6 15h1v1H6zM5 14h1v1H5zM4 13h1v1H4z"/><path d="M6 5H5v2h2V6H6V5ZM11 5h-1v2h2V6h-1V5Z" fill="#fff"/><path fill="#76778b" d="M5 6h1v1H5zM10 6h1v1h-1z"/><path d="M6 10v1h1v1h2v-1h1v-1H9V9H7v1H6Z" fill="#d29985"/><path d="M7 10v1h2v-1H7Z" fill="#fff" fill-opacity=".2"/><g fill="#bd1700"><path d="M3 2h10v2H3zM2 2h1v1H2zM2 1h1v1H2z"/><path d="M2 2h1v1H2zM13 0h1v1h-1zM2 4h1v1H2zM5 0h1v1H5zM4 1h1v1H4zM6 1h1v1H6zM9 1h1v1H9zM8 0h1v1H8zM12 1h1v1h-1zM13 2h1v1h-1z"/><path d="M12 1h1v1h-1zM14 3h1v1h-1zM13 4h1v1h-1zM1 3h1v1H1z"/></g></g></g></svg>