<svg xmlns="http://www.w3.org/2000/svg" viewBox="0 0 16 16" fill="none" shape-rendering="crispEdges" width="128" height="128"><metadata xmlns:rdf="http://www.w3.org/1999/02/22-rdf-syntax-ns#" xmlns:xsi="http://www.w3.org/2001/XMLSchema-instance" xmlns:dc="http://purl.org/dc/elements/1.1/" xmlns:dcterms="http://purl.org/dc/terms/"><rdf:RDF><rdf:Description><dc:title>Pixel Art</dc:title><dc:creator>DiceBear</dc:creator><dc:source xsi:type="dcterms:URI">https://www.figma.com/community/file/1198754108850888330</dc:source><dcterms:license xsi:type="dcterms:URI">https://creativecommons.org/publicdomain/zero/1.0/</dcterms:license><dc:rights>„Pixel Art” (https://www.figma.com/community/file/1198754108850888330) by „DiceBear”, licensed under „CC0 1.0” (https://creativecommons.org/publicdomain/zero/1.0/)</dc:rights></rdf:Description></rdf:RDF></metadata><mask id="viewboxMask"><rect width="16" height="16" rx="0" ry="0" x="0" y="0" fill="#fff" /></mask><g mask="url(#viewboxMask)"><rect fill="#e0e7ff" width="16" height="16" x="0" y="0" /><g transform="translate(0.8 0.8) scale(0.9)"><path d="M4 2h8v1h1v3h1v2h-1v3h-1v1H9v1h4v1h1v2H2v-2h1v-1h4v-1H4v-1H3V8H2V6h1V3h1V2Z" fill="#eac393"/><path d="M4 2h8v1h1v3h1v2h-1v3h-1v1H4v-1H3V8H2V6h1V3h1V2Z" fill="#fff" fill-opacity=".1"/><path d="M5 13H3v1H2v2h12v-2h-1v-1h-2v1H5v-1Z" fill="#ffeead"/><path fill="#fff" fill-opacity=".3" d="M2 14h1v2H2zM6 14h1v2H6zM8 14h1v2H8zM10 14h1v2h-1zM4 13h1v3H4zM12 13h1v3h-1z"/><path fill="#fff" d="M4 5h3v3H4zM9 5h3v3H9z"/><path fill="#76778b" d="M10 6h1v1h-1zM5 6h1v1H5z"/><path d="M6 9v1h1v1h2v-1h1V9H6Z" fill="#d29985"/><g fill="#603015"><path d="M5 0h1v1H5V0Z"/><path d="M2 3h1V1h2v1h1V1h1v1h1V1H7V0h2v2h1V1h1v1h1V1h1v1h1v1h-1v1H4v1H3v1H2V5H1V4h1V3Z"/><path d="M2 3H1V2h1v1ZM1 6H0V5h1v1ZM2 8H1V6h1v2ZM2 8h1v2H2V8Z"/><path fill-rule="evenodd" clip-rule="evenodd" d="M14 4h-1v2h2V5h1V4h-1V3h-1v1Zm0 0h1v1h-1V4Z"/><path d="M12 1h-1V0h1v1ZM13 8h1v2h-1V8Z"/></g></g></g></svg>