<svg xmlns="http://www.w3.org/2000/svg" viewBox="0 0 16 16" fill="none" shape-rendering="crispEdges" width="128" height="128"><metadata xmlns:rdf="http://www.w3.org/1999/02/22-rdf-syntax-ns#" xmlns:xsi="http://www.w3.org/2001/XMLSchema-instance" xmlns:dc="http://purl.org/dc/elements/1.1/" xmlns:dcterms="http://purl.org/dc/terms/"><rdf:RDF><rdf:Description><dc:title>Pixel Art</dc:title><dc:creator>DiceBear</dc:creator><dc:source xsi:type="dcterms:URI">https://www.figma.com/community/file/1198754108850888330</dc:source><dcterms:license xsi:type="dcterms:URI">https://creativecommons.org/publicdomain/zero/1.0/</dcterms:license><dc:rights>„Pixel Art” (https://www.figma.com/community/file/1198754108850888330) by „DiceBear”, licensed under „CC0 1.0” (https://creativecommons.org/publicdomain/zero/1.0/)</dc:rights></rdf:Description></rdf:RDF></metadata><mask id="viewboxMask"><rect width="16" height="16" rx="0" ry="0" x="0" y="0" fill="#fff" /></mask><g mask="url(#viewboxMask)"><rect fill="#fef3c7" width="16" height="16" x="0" y="0" /><g transform="translate(0.8 0.8) scale(0.9)"><path d="M4 2h8v1h1v3h1v2h-1v3h-1v1H9v1h4v1h1v2H2v-2h1v-1h4v-1H4v-1H3V8H2V6h1V3h1V2Z" fill="#8d5524"/><path d="M4 2h8v1h1v3h1v2h-1v3h-1v1H4v-1H3V8H2V6h1V3h1V2Z" fill="#fff" fill-opacity=".1"/><path d="M10 13h3v1h1v2H2v-2h1v-1h3v1h1v1h2v-1h1v-1Z" fill="#44c585"/><path fill="#fff" d="M4 5h3v3H4zM9 5h3v3H9z"/><path fill="#5b7c8b" d="M10 6h1v1h-1zM5 6h1v1H5z"/><path fill-rule="evenodd" clip-rule="evenodd" d="M2 5v1h1v2h1v1h3V8h2v1h3V8h1V6h1V5H9v1H7V5H2Zm5 1v2H4V6h3Zm2 0v2h3V6H9Z" fill="#4b4b4b"/><path fill="#fff" fill-opacity=".3" d="M4 6h3v2H4zM9 6h3v2H9z"/><path fill="#fff" fill-opacity=".2" d="M2 5h2v1H2zM12 5h2v1h-2z"/><path d="M6 10v1h1v1h2v-1h1v-1H9V9H7v1H6Z" fill="#c98276"/><path d="M7 10v1h2v-1H7Z" fill="#fff" fill-opacity=".2"/><path d="M12 2H4v1h8zM13 3h-2v1h2zM13 4h-1v1h1zM6 3H3v1h3zM5 4H3v1h2zM4 5H3v1h1z" fill="#611c17"/></g></g></svg>