<svg xmlns="http://www.w3.org/2000/svg" viewBox="0 0 16 16" fill="none" shape-rendering="crispEdges" width="128" height="128"><metadata xmlns:rdf="http://www.w3.org/1999/02/22-rdf-syntax-ns#" xmlns:xsi="http://www.w3.org/2001/XMLSchema-instance" xmlns:dc="http://purl.org/dc/elements/1.1/" xmlns:dcterms="http://purl.org/dc/terms/"><rdf:RDF><rdf:Description><dc:title>Pixel Art</dc:title><dc:creator>DiceBear</dc:creator><dc:source xsi:type="dcterms:URI">https://www.figma.com/community/file/1198754108850888330</dc:source><dcterms:license xsi:type="dcterms:URI">https://creativecommons.org/publicdomain/zero/1.0/</dcterms:license><dc:rights>„Pixel Art” (https://www.figma.com/community/file/1198754108850888330) by „DiceBear”, licensed under „CC0 1.0” (https://creativecommons.org/publicdomain/zero/1.0/)</dc:rights></rdf:Description></rdf:RDF></metadata><mask id="viewboxMask"><rect width="16" height="16" rx="0" ry="0" x="0" y="0" fill="#fff" /></mask><g mask="url(#viewboxMask)"><rect fill="#d1fae5" width="16" height="16" x="0" y="0" /><g transform="translate(0.8 0.8) scale(0.9)"><path d="M4 2h8v1h1v3h1v2h-1v3h-1v1H9v1h4v1h1v2H2v-2h1v-1h4v-1H4v-1H3V8H2V6h1V3h1V2Z" fill="#cb9e6e"/><path d="M4 2h8v1h1v3h1v2h-1v3h-1v1H4v-1H3V8H2V6h1V3h1V2Z" fill="#fff" fill-opacity=".1"/><path d="M5 13H3v1H2v2h12v-2h-1v-1h-2v1H5v-1Z" fill="#03396c"/><g fill-rule="evenodd" clip-rule="evenodd"><path d="M5 6h1v2H4V7h1V6Zm5 0h1v2H9V7h1V6Z" fill="#fff"/><path d="M6 6v1H5v1h2V6H6Zm5 0v1h-1v1h2V6h-1Z" fill="#647b90"/><path d="M6 6v1h1V6H6ZM5 7v1h1V7H5Zm6-1v1h1V6h-1Zm-1 1v1h1V7h-1Z" fill="#fff" fill-opacity=".5"/></g><path fill="#43677d" d="M2 5h12v1H2zM3 7h10v1H3zM3 6h1v1H3zM12 6h1v1h-1z"/><path fill="#fff" fill-opacity=".3" d="M4 6h8v1H4z"/><path fill="#fff" fill-opacity=".2" d="M2 5h1v1H2zM13 5h1v1h-1z"/><path fill="#000" fill-opacity=".3" d="M7 6h2v1H7z"/><mask id="beardVariant06-a" style="mask-type:luminance" maskUnits="userSpaceOnUse" x="3" y="9" width="10" height="3"><path opacity=".9" d="M3 9h3v1h4V9h3v2h-1v1H4v-1H3V9Z" fill="#cab188"/></mask><g mask="url(#beardVariant06-a)"><path fill="#cab188" d="M0 0h16v16H0z"/><path fill="#fff" fill-opacity=".3" d="M0 0h16v16H0z"/></g><path d="M6 10v1h1v1h2v-1h1v-1H9V9H7v1H6Z" fill="#e35d6a"/><path d="M7 10v1h2v-1H7Z" fill="#fff" fill-opacity=".2"/><g fill="#cab188"><path d="M4 2H3v3h1zM13 2h-1v3h1z"/><path d="M12 1H3v2h9z"/><path d="M4 2H2v2h2zM14 2h-2v2h2z"/></g></g></g></svg>