<svg xmlns="http://www.w3.org/2000/svg" viewBox="0 0 16 16" fill="none" shape-rendering="crispEdges" width="128" height="128"><metadata xmlns:rdf="http://www.w3.org/1999/02/22-rdf-syntax-ns#" xmlns:xsi="http://www.w3.org/2001/XMLSchema-instance" xmlns:dc="http://purl.org/dc/elements/1.1/" xmlns:dcterms="http://purl.org/dc/terms/"><rdf:RDF><rdf:Description><dc:title>Pixel Art</dc:title><dc:creator>DiceBear</dc:creator><dc:source xsi:type="dcterms:URI">https://www.figma.com/community/file/1198754108850888330</dc:source><dcterms:license xsi:type="dcterms:URI">https://creativecommons.org/publicdomain/zero/1.0/</dcterms:license><dc:rights>„Pixel Art” (https://www.figma.com/community/file/1198754108850888330) by „DiceBear”, licensed under „CC0 1.0” (https://creativecommons.org/publicdomain/zero/1.0/)</dc:rights></rdf:Description></rdf:RDF></metadata><mask id="viewboxMask"><rect width="16" height="16" rx="0" ry="0" x="0" y="0" fill="#fff" /></mask><g mask="url(#viewboxMask)"><rect fill="#fef3c7" width="16" height="16" x="0" y="0" /><g transform="translate(0.8 0.8) scale(0.9)"><path d="M4 2h8v1h1v3h1v2h-1v3h-1v1H9v1h4v1h1v2H2v-2h1v-1h4v-1H4v-1H3V8H2V6h1V3h1V2Z" fill="#f5cfa0"/><path d="M4 2h8v1h1v3h1v2h-1v3h-1v1H4v-1H3V8H2V6h1V3h1V2Z" fill="#fff" fill-opacity=".1"/><path d="M4 13h2v1h1v1h2v-1h1v-1h2v3H4v-3Z" fill="#88d8b0"/><path fill="#fff" fill-opacity=".3" d="M10 14h1v1h-1zM11 13h1v1h-1zM9 15h1v1H9z"/><path fill="#fff" fill-opacity=".5" d="M9 14h1v1H9zM10 13h1v1h-1zM8 15h1v1H8z"/><path fill="#fff" fill-opacity=".3" d="M6 14H5v1h1zM5 13H4v1h1zM7 15H6v1h1z"/><path fill="#fff" fill-opacity=".5" d="M7 14H6v1h1zM6 13H5v1h1zM8 15H7v1h1z"/><path fill="#fff" d="M4 5h3v2H4zM9 5h3v2H9z"/><path d="M11 5h-1v1H9v1h3V6h-1V5Z" fill="#876658"/><path fill="#fff" fill-opacity=".5" d="M9 6h1v1H9zM10 5h1v1h-1zM11 6h1v1h-1z"/><path d="M6 5H5v1H4v1h3V6H6V5Z" fill="#876658"/><path fill="#fff" fill-opacity=".5" d="M4 6h1v1H4zM5 5h1v1H5zM6 6h1v1H6z"/><path d="M9 9v1H7v1H6v-1h1V9h2Z" fill="#d29985"/><path d="M12 2H4v1h8zM13 3h-2v1h2zM13 4h-1v1h1zM6 3H3v1h3zM5 4H3v1h2zM4 5H3v1h1z" fill="#009bbd"/></g></g></svg>