<svg xmlns="http://www.w3.org/2000/svg" viewBox="0 0 16 16" fill="none" shape-rendering="crispEdges" width="128" height="128"><metadata xmlns:rdf="http://www.w3.org/1999/02/22-rdf-syntax-ns#" xmlns:xsi="http://www.w3.org/2001/XMLSchema-instance" xmlns:dc="http://purl.org/dc/elements/1.1/" xmlns:dcterms="http://purl.org/dc/terms/"><rdf:RDF><rdf:Description><dc:title>Pixel Art</dc:title><dc:creator>DiceBear</dc:creator><dc:source xsi:type="dcterms:URI">https://www.figma.com/community/file/1198754108850888330</dc:source><dcterms:license xsi:type="dcterms:URI">https://creativecommons.org/publicdomain/zero/1.0/</dcterms:license><dc:rights>„Pixel Art” (https://www.figma.com/community/file/1198754108850888330) by „DiceBear”, licensed under „CC0 1.0” (https://creativecommons.org/publicdomain/zero/1.0/)</dc:rights></rdf:Description></rdf:RDF></metadata><mask id="viewboxMask"><rect width="16" height="16" rx="0" ry="0" x="0" y="0" fill="#fff" /></mask><g mask="url(#viewboxMask)"><rect fill="#fce7f3" width="16" height="16" x="0" y="0" /><g transform="translate(0.8 0.8) scale(0.9)"><path d="M4 2h8v1h1v3h1v2h-1v3h-1v1H9v1h4v1h1v2H2v-2h1v-1h4v-1H4v-1H3V8H2V6h1V3h1V2Z" fill="#a26d3d"/><path d="M4 2h8v1h1v3h1v2h-1v3h-1v1H4v-1H3V8H2V6h1V3h1V2Z" fill="#fff" fill-opacity=".1"/><path d="M13 7h2v2h-2zM1 7h2v2H1z" fill="#a9a9a9"/><path d="M4 13h1v2h6v-2h1v2h1v1H3v-1h1v-2Z" fill="#428bca"/><path fill="#fff" fill-opacity=".2" d="M4 13h1v2H4zM11 13h1v2h-1z"/><path fill="#fff" d="M4 5h3v3H4zM9 5h3v3H9z"/><path fill="#588387" d="M4 6h2v1H4zM9 6h2v1H9z"/><path fill="#fff" fill-opacity=".7" d="M4 6h1v1H4zM9 6h1v1H9z"/><path d="M6 9v1h3v1h1v-1H9V9H6Z" fill="#c98276"/><g fill="#612616"><path d="M4 2h8v1H4zM3 3h3v1H3zM10 3h3v1h-3zM8 3h1v1H8z"/><path d="M8 3h1v1H8z"/></g></g></g></svg>