<svg xmlns="http://www.w3.org/2000/svg" viewBox="0 0 16 16" fill="none" shape-rendering="crispEdges" width="128" height="128"><metadata xmlns:rdf="http://www.w3.org/1999/02/22-rdf-syntax-ns#" xmlns:xsi="http://www.w3.org/2001/XMLSchema-instance" xmlns:dc="http://purl.org/dc/elements/1.1/" xmlns:dcterms="http://purl.org/dc/terms/"><rdf:RDF><rdf:Description><dc:title>Pixel Art</dc:title><dc:creator>DiceBear</dc:creator><dc:source xsi:type="dcterms:URI">https://www.figma.com/community/file/1198754108850888330</dc:source><dcterms:license xsi:type="dcterms:URI">https://creativecommons.org/publicdomain/zero/1.0/</dcterms:license><dc:rights>„Pixel Art” (https://www.figma.com/community/file/1198754108850888330) by „DiceBear”, licensed under „CC0 1.0” (https://creativecommons.org/publicdomain/zero/1.0/)</dc:rights></rdf:Description></rdf:RDF></metadata><mask id="viewboxMask"><rect width="16" height="16" rx="0" ry="0" x="0" y="0" fill="#fff" /></mask><g mask="url(#viewboxMask)"><rect fill="#d1fae5" width="16" height="16" x="0" y="0" /><g transform="translate(0.8 0.8) scale(0.9)"><path d="M4 2h8v1h1v3h1v2h-1v3h-1v1H9v1h4v1h1v2H2v-2h1v-1h4v-1H4v-1H3V8H2V6h1V3h1V2Z" fill="#cb9e6e"/><path d="M4 2h8v1h1v3h1v2h-1v3h-1v1H4v-1H3V8H2V6h1V3h1V2Z" fill="#fff" fill-opacity=".1"/><path d="M5 13H3v1H2v2h12v-2h-1v-1h-2v1H5v-1Z" fill="#ff6f69"/><path fill="#fff" fill-opacity=".3" d="M2 14h1v2H2zM6 14h1v2H6zM8 14h1v2H8zM10 14h1v2h-1zM4 13h1v3H4zM12 13h1v3h-1z"/><path fill="#fff" d="M4 5h3v2H4z"/><path fill="#697b94" d="M5 6h1v1H5z"/><path fill="#fff" d="M9 5h3v2H9z"/><path fill="#697b94" d="M10 6h1v1h-1z"/><path fill="#191919" d="M2 5h12v1H2zM3 7h10v1H3zM3 6h1v1H3zM12 6h1v1h-1z"/><path fill="#000" fill-opacity=".3" d="M4 6h8v1H4z"/><path fill="#fff" fill-opacity=".2" d="M2 5h1v1H2zM13 5h1v1h-1z"/><path fill="#000" fill-opacity=".3" d="M7 6h2v1H7z"/><path d="M6 9v1h1v1h2v-1h1V9H6Z" fill="#c98276"/><path d="M12 2H4v1h8zM13 3h-1v1h1zM6 3H3v1h3zM5 4H3v1h2z" fill="#cab188"/></g></g></svg>