<svg xmlns="http://www.w3.org/2000/svg" viewBox="0 0 16 16" fill="none" shape-rendering="crispEdges" width="128" height="128"><metadata xmlns:rdf="http://www.w3.org/1999/02/22-rdf-syntax-ns#" xmlns:xsi="http://www.w3.org/2001/XMLSchema-instance" xmlns:dc="http://purl.org/dc/elements/1.1/" xmlns:dcterms="http://purl.org/dc/terms/"><rdf:RDF><rdf:Description><dc:title>Pixel Art</dc:title><dc:creator>DiceBear</dc:creator><dc:source xsi:type="dcterms:URI">https://www.figma.com/community/file/1198754108850888330</dc:source><dcterms:license xsi:type="dcterms:URI">https://creativecommons.org/publicdomain/zero/1.0/</dcterms:license><dc:rights>„Pixel Art” (https://www.figma.com/community/file/1198754108850888330) by „DiceBear”, licensed under „CC0 1.0” (https://creativecommons.org/publicdomain/zero/1.0/)</dc:rights></rdf:Description></rdf:RDF></metadata><mask id="viewboxMask"><rect width="16" height="16" rx="0" ry="0" x="0" y="0" fill="#fff" /></mask><g mask="url(#viewboxMask)"><rect fill="#e0e7ff" width="16" height="16" x="0" y="0" /><g transform="translate(0.8 0.8) scale(0.9)"><path d="M4 2h8v1h1v3h1v2h-1v3h-1v1H9v1h4v1h1v2H2v-2h1v-1h4v-1H4v-1H3V8H2V6h1V3h1V2Z" fill="#f5cfa0"/><path d="M4 2h8v1h1v3h1v2h-1v3h-1v1H4v-1H3V8H2V6h1V3h1V2Z" fill="#fff" fill-opacity=".1"/><path d="M6 14H4v1H3v1h4v-1H6v-1ZM12 15h1v1H9v-1h1v-1h2v1Z" fill="#ffeead"/><path d="M6 5H5v2h2V6H6V5ZM11 5h-1v2h2V6h-1V5Z" fill="#fff"/><path fill="#76778b" d="M5 6h1v1H5zM10 6h1v1h-1z"/><path fill-rule="evenodd" clip-rule="evenodd" d="M14 5H2v1h1v2h4V7h2v1h4V6h1V5Zm-2 1H9v1h3V6ZM7 7H4V6h3v1Z" fill="#4b4b4b"/><path fill="#000" fill-opacity=".3" d="M4 6h3v1H4z"/><path fill="#fff" fill-opacity=".2" d="M2 5h1v1H2zM7 5h2v1H7zM13 5h1v1h-1z"/><path fill="#000" fill-opacity=".3" d="M9 6h3v1H9z"/><path d="M7 9h3v1H7V9Z" fill="#de0f0d"/><path d="M13 1H3v1H2v4h1V3h10v3h1V2h-1V1ZM2 8h1v3h1v1H2V8ZM12 11h1V8h1v4h-2v-1Z" fill="#009bbd"/></g></g></svg>