<svg xmlns="http://www.w3.org/2000/svg" viewBox="0 0 16 16" fill="none" shape-rendering="crispEdges" width="128" height="128"><metadata xmlns:rdf="http://www.w3.org/1999/02/22-rdf-syntax-ns#" xmlns:xsi="http://www.w3.org/2001/XMLSchema-instance" xmlns:dc="http://purl.org/dc/elements/1.1/" xmlns:dcterms="http://purl.org/dc/terms/"><rdf:RDF><rdf:Description><dc:title>Pixel Art</dc:title><dc:creator>DiceBear</dc:creator><dc:source xsi:type="dcterms:URI">https://www.figma.com/community/file/1198754108850888330</dc:source><dcterms:license xsi:type="dcterms:URI">https://creativecommons.org/publicdomain/zero/1.0/</dcterms:license><dc:rights>„Pixel Art” (https://www.figma.com/community/file/1198754108850888330) by „DiceBear”, licensed under „CC0 1.0” (https://creativecommons.org/publicdomain/zero/1.0/)</dc:rights></rdf:Description></rdf:RDF></metadata><mask id="viewboxMask"><rect width="16" height="16" rx="0" ry="0" x="0" y="0" fill="#fff" /></mask><g mask="url(#viewboxMask)"><rect fill="#fef3c7" width="16" height="16" x="0" y="0" /><g transform="translate(0.8 0.8) scale(0.9)"><path d="M4 2h8v1h1v3h1v2h-1v3h-1v1H9v1h4v1h1v2H2v-2h1v-1h4v-1H4v-1H3V8H2V6h1V3h1V2Z" fill="#e0b687"/><path d="M4 2h8v1h1v3h1v2h-1v3h-1v1H4v-1H3V8H2V6h1V3h1V2Z" fill="#fff" fill-opacity=".1"/><path d="M6 14H4v1H3v1h4v-1H6v-1ZM12 15h1v1H9v-1h1v-1h2v1Z" fill="#ffc425"/><path fill="#fff" d="M4 5h3v2H4zM9 5h3v2H9z"/><path fill="#876658" d="M9 6h1v1H9zM4 6h1v1H4z"/><path fill-rule="evenodd" clip-rule="evenodd" d="M2 5v1h1v2h1v1h3V8h2v1h3V8h1V6h1V5H9v1H7V5H2Zm5 1v2H4V6h3Zm2 0v2h3V6H9Z" fill="#4b4b4b"/><path fill="#fff" fill-opacity=".3" d="M4 6h3v2H4zM9 6h3v2H9z"/><path fill="#fff" fill-opacity=".2" d="M2 5h2v1H2zM12 5h2v1h-2z"/><path d="M9 9v1H7v1H6v-1h1V9h2Z" fill="#e35d6a"/><g fill="#83623b"><path d="M4 2h8v1H4zM3 1h1v1H3zM2 2h1v1H2zM2 3h1v1H2zM2 4h1v1H2zM2 5h1v1H2zM1 3h1v1H1zM1 1h1v1H1zM1 5h1v1H1zM1 6h1v1H1zM0 7h1v1H0zM1 8h1v1H1zM5 1h1v1H5zM6 0h1v1H6zM4 0h1v1H4zM6 1h1v1H6zM7 1h1v1H7zM8 0h1v1H8zM9 1h1v1H9zM9 0h1v1H9zM11 0h1v1h-1zM10 1h1v1h-1zM12 1h1v1h-1zM13 2h1v1h-1zM13 3h1v1h-1zM13 4h1v1h-1zM13 5h1v1h-1zM14 6h1v1h-1zM15 4h1v1h-1z"/><path d="M15 4h1v1h-1zM14 3h1v1h-1zM14 8h1v1h-1zM15 6h1v1h-1zM15 7h1v1h-1zM13 2h1v1h-1zM2 2h1v1H2zM3 1h1v1H3z"/></g></g></g></svg>