<svg xmlns="http://www.w3.org/2000/svg" viewBox="0 0 16 16" fill="none" shape-rendering="crispEdges" width="128" height="128"><metadata xmlns:rdf="http://www.w3.org/1999/02/22-rdf-syntax-ns#" xmlns:xsi="http://www.w3.org/2001/XMLSchema-instance" xmlns:dc="http://purl.org/dc/elements/1.1/" xmlns:dcterms="http://purl.org/dc/terms/"><rdf:RDF><rdf:Description><dc:title>Pixel Art</dc:title><dc:creator>DiceBear</dc:creator><dc:source xsi:type="dcterms:URI">https://www.figma.com/community/file/1198754108850888330</dc:source><dcterms:license xsi:type="dcterms:URI">https://creativecommons.org/publicdomain/zero/1.0/</dcterms:license><dc:rights>„Pixel Art” (https://www.figma.com/community/file/1198754108850888330) by „DiceBear”, licensed under „CC0 1.0” (https://creativecommons.org/publicdomain/zero/1.0/)</dc:rights></rdf:Description></rdf:RDF></metadata><mask id="viewboxMask"><rect width="16" height="16" rx="0" ry="0" x="0" y="0" fill="#fff" /></mask><g mask="url(#viewboxMask)"><rect fill="#d1fae5" width="16" height="16" x="0" y="0" /><g transform="translate(0.8 0.8) scale(0.9)"><path d="M4 2h8v1h1v3h1v2h-1v3h-1v1H9v1h4v1h1v2H2v-2h1v-1h4v-1H4v-1H3V8H2V6h1V3h1V2Z" fill="#b68655"/><path d="M4 2h8v1h1v3h1v2h-1v3h-1v1H4v-1H3V8H2V6h1V3h1V2Z" fill="#fff" fill-opacity=".1"/><path d="M2 7h1v1H2zM13 7h1v1h-1z" fill="#d3d3d3"/><path d="M10 13h3v1h1v2H2v-2h1v-1h3v1h4v-1Z" fill="#03396c"/><g fill-rule="evenodd" clip-rule="evenodd"><path d="M5 6h1v2H4V7h1V6Zm5 0h1v2H9V7h1V6Z" fill="#fff"/><path d="M6 6v1H5v1h2V6H6Zm5 0v1h-1v1h2V6h-1Z" fill="#647b90"/><path d="M6 6v1h1V6H6ZM5 7v1h1V7H5Zm6-1v1h1V6h-1Zm-1 1v1h1V7h-1Z" fill="#fff" fill-opacity=".5"/></g><path fill-rule="evenodd" clip-rule="evenodd" d="M2 5v1h1v2h1v1h3V8h2v1h3V8h1V6h1V5H2Zm10 3H9V6h3v2ZM7 8H4V6h3v2Z" fill="#4b4b4b"/><path fill="#fff" fill-opacity=".3" d="M9 6h3v2H9zM4 6h3v2H4z"/><path fill="#fff" fill-opacity=".2" d="M7 5h2v1H7zM2 5h2v1H2zM12 5h2v1h-2z"/><path d="M6 9v1h1v1h2v-1H7V9H6Z" fill="#e35d6a"/><g fill="#009bbd"><path d="M4 2h8v1H4zM3 3h3v1H3zM10 3h3v1h-3zM8 3h1v1H8z"/><path d="M8 3h1v1H8z"/></g></g></g></svg>