<svg xmlns="http://www.w3.org/2000/svg" viewBox="0 0 16 16" fill="none" shape-rendering="crispEdges" width="128" height="128"><metadata xmlns:rdf="http://www.w3.org/1999/02/22-rdf-syntax-ns#" xmlns:xsi="http://www.w3.org/2001/XMLSchema-instance" xmlns:dc="http://purl.org/dc/elements/1.1/" xmlns:dcterms="http://purl.org/dc/terms/"><rdf:RDF><rdf:Description><dc:title>Pixel Art</dc:title><dc:creator>DiceBear</dc:creator><dc:source xsi:type="dcterms:URI">https://www.figma.com/community/file/1198754108850888330</dc:source><dcterms:license xsi:type="dcterms:URI">https://creativecommons.org/publicdomain/zero/1.0/</dcterms:license><dc:rights>„Pixel Art” (https://www.figma.com/community/file/1198754108850888330) by „DiceBear”, licensed under „CC0 1.0” (https://creativecommons.org/publicdomain/zero/1.0/)</dc:rights></rdf:Description></rdf:RDF></metadata><mask id="viewboxMask"><rect width="16" height="16" rx="0" ry="0" x="0" y="0" fill="#fff" /></mask><g mask="url(#viewboxMask)"><rect fill="#e0e7ff" width="16" height="16" x="0" y="0" /><g transform="translate(0.8 0.8) scale(0.9)"><path d="M4 2h8v1h1v3h1v2h-1v3h-1v1H9v1h4v1h1v2H2v-2h1v-1h4v-1H4v-1H3V8H2V6h1V3h1V2Z" fill="#f5cfa0"/><path d="M4 2h8v1h1v3h1v2h-1v3h-1v1H4v-1H3V8H2V6h1V3h1V2Z" fill="#fff" fill-opacity=".1"/><path d="M4 13h1v1h6v-1h1v1h1v2H3v-2h1v-1Z" fill="#88d8b0"/><path fill="#fff" fill-opacity=".5" d="M9 15h2v1H9z"/><path fill="#fff" d="M4 5h3v2H4zM9 5h3v2H9z"/><path fill="#876658" d="M9 6h1v1H9zM4 6h1v1H4z"/><path d="M6 9v1h3v1h1v-1H9V9H6Z" fill="#d29985"/><g fill="#83623b"><path d="M3 2h10v2H3zM2 2h1v1H2zM2 1h1v1H2z"/><path d="M2 2h1v1H2zM13 0h1v1h-1zM2 4h1v1H2zM5 0h1v1H5zM4 1h1v1H4zM6 1h1v1H6zM9 1h1v1H9zM8 0h1v1H8zM12 1h1v1h-1zM13 2h1v1h-1z"/><path d="M12 1h1v1h-1zM14 3h1v1h-1zM13 4h1v1h-1zM1 3h1v1H1z"/></g></g></g></svg>