<svg xmlns="http://www.w3.org/2000/svg" viewBox="0 0 16 16" fill="none" shape-rendering="crispEdges" width="128" height="128"><metadata xmlns:rdf="http://www.w3.org/1999/02/22-rdf-syntax-ns#" xmlns:xsi="http://www.w3.org/2001/XMLSchema-instance" xmlns:dc="http://purl.org/dc/elements/1.1/" xmlns:dcterms="http://purl.org/dc/terms/"><rdf:RDF><rdf:Description><dc:title>Pixel Art</dc:title><dc:creator>DiceBear</dc:creator><dc:source xsi:type="dcterms:URI">https://www.figma.com/community/file/1198754108850888330</dc:source><dcterms:license xsi:type="dcterms:URI">https://creativecommons.org/publicdomain/zero/1.0/</dcterms:license><dc:rights>„Pixel Art” (https://www.figma.com/community/file/1198754108850888330) by „DiceBear”, licensed under „CC0 1.0” (https://creativecommons.org/publicdomain/zero/1.0/)</dc:rights></rdf:Description></rdf:RDF></metadata><mask id="viewboxMask"><rect width="16" height="16" rx="0" ry="0" x="0" y="0" fill="#fff" /></mask><g mask="url(#viewboxMask)"><rect fill="#e0e7ff" width="16" height="16" x="0" y="0" /><g transform="translate(0.8 0.8) scale(0.9)"><path d="M4 2h8v1h1v3h1v2h-1v3h-1v1H9v1h4v1h1v2H2v-2h1v-1h4v-1H4v-1H3V8H2V6h1V3h1V2Z" fill="#eac393"/><path d="M4 2h8v1h1v3h1v2h-1v3h-1v1H4v-1H3V8H2V6h1V3h1V2Z" fill="#fff" fill-opacity=".1"/><path d="M4 13h1v1h6v-1h1v3H4v-3Z" fill="#03396c"/><path fill="#fff" fill-opacity=".3" d="M9 15h2v1H9z"/><path fill="#fff" d="M12 5H9v3h3zM7 5H4v3h3z"/><path fill="#647b90" d="M12 6h-2v1h2zM7 6H5v1h2z"/><path fill="#fff" fill-opacity=".7" d="M12 6h-1v1h1zM7 6H6v1h1z"/><path d="M6 9v1h1v1h2v-1H7V9H6Z" fill="#e35d6a"/><g fill="#28150a"><path d="M4 2h8v1H4zM3 1h1v1H3zM2 2h1v1H2zM2 3h1v1H2zM2 4h1v1H2zM2 5h1v1H2zM1 3h1v1H1zM1 1h1v1H1zM1 5h1v1H1zM1 6h1v1H1zM0 7h1v1H0zM1 8h1v1H1zM5 1h1v1H5zM6 0h1v1H6zM4 0h1v1H4zM6 1h1v1H6zM7 1h1v1H7zM8 0h1v1H8zM9 1h1v1H9zM9 0h1v1H9zM11 0h1v1h-1zM10 1h1v1h-1zM12 1h1v1h-1zM13 2h1v1h-1zM13 3h1v1h-1zM13 4h1v1h-1zM13 5h1v1h-1zM14 6h1v1h-1zM15 4h1v1h-1z"/><path d="M15 4h1v1h-1zM14 3h1v1h-1zM14 8h1v1h-1zM15 6h1v1h-1zM15 7h1v1h-1zM13 2h1v1h-1zM2 2h1v1H2zM3 1h1v1H3z"/></g></g></g></svg>